/* XPM */
static const char *background[] = {
/* columns rows colors chars-per-pixel */
"64 64 2 1 ",
"  c #2E2823",
". c #201208",
/* pixels */
"                        ........        ........        ........",
"                        ........        ........        ........",
"                        ........        ........        ........",
"                        ........        ........        ........",
"                        ........        ........        ........",
"                        ........        ........        ........",
"                        ........        ........        ........",
"                        ........        ........        ........",
"                        ................        ........        ",
"                        ................        ........        ",
"                        ................        ........        ",
"                        ................        ........        ",
"                        ................        ........        ",
"                        ................        ........        ",
"                        ................        ........        ",
"                        ................        ........        ",
"                        ........        ........        ........",
"                        ........        ........        ........",
"                        ........        ........        ........",
"                        ........        ........        ........",
"                        ........        ........        ........",
"                        ........        ........        ........",
"                        ........        ........        ........",
"                        ........        ........        ........",
"                        ........................................",
"                        ........................................",
"                        ........................................",
"                        ........................................",
"                        ........................................",
"                        ........................................",
"                        ........................................",
"                        ........................................",
"........................................                        ",
"........................................                        ",
"........................................                        ",
"........................................                        ",
"........................................                        ",
"........................................                        ",
"........................................                        ",
"........................................                        ",
"........        ........        ........                        ",
"........        ........        ........                        ",
"........        ........        ........                        ",
"........        ........        ........                        ",
"........        ........        ........                        ",
"........        ........        ........                        ",
"........        ........        ........                        ",
"........        ........        ........                        ",
"        ........        ................                        ",
"        ........        ................                        ",
"        ........        ................                        ",
"        ........        ................                        ",
"        ........        ................                        ",
"        ........        ................                        ",
"        ........        ................                        ",
"        ........        ................                        ",
"........        ........        ........                        ",
"........        ........        ........                        ",
"........        ........        ........                        ",
"........        ........        ........                        ",
"........        ........        ........                        ",
"........        ........        ........                        ",
"........        ........        ........                        ",
"........        ........        ........                        "
};
