/* XPM */
static const char *collectible2[] = {
/* columns rows colors chars-per-pixel */
"64 64 3 1 ",
"  c #2E2823",
". c #201208",
"X c #FF880B",
/* pixels */
"                        ....XXXXXXXX    ........        ........",
"                        ....XXXXXXXX    ........        ........",
"                        ....XXXXXXXX    ........        ........",
"                        ....XXXXXXXX    ........        ........",
"                        ....XXXXXXXX    ........        ........",
"                        ....XXXXXXXX    ........        ........",
"                        ....XXXXXXXX    ........        ........",
"                        ....XXXXXXXX    ........        ........",
"                        ....XXXXXXXX....        ........        ",
"                        ....XXXXXXXX....        ........        ",
"                        ....XXXXXXXX....        ........        ",
"                        ....XXXXXXXX....        ........        ",
"                        ....XXXXXXXX....        ........        ",
"                        ....XXXXXXXX....        ........        ",
"       XXXXXXXXXXXXXX   ................   XXXXXXXXXXXXXX       ",
"       XXXXXXXXXXXXXX   ................   XXXXXXXXXXXXXX       ",
"       XXXXXXXXXXXXXX   ........        ...XXXXXXXXXXXXXX.......",
"       XXXXXXXXXXXXXX   ........        ...XXXXXXXXXXXXXX.......",
"       XXXXXXXXXXXXXX   ........        ...XXXXXXXXXXXXXX.......",
"       XXXXXXXXXXXXXX   ........        ...XXXXXXXXXXXXXX.......",
"       XXXXXXXXXXXXXX   ........        ...XXXXXXXXXXXXXX.......",
"XXXXXXXXXXXXXXXXXXXXXXXXXXXXXXXXXXXXXXXXXXXXXXXXXXXXXXXXXXXXXXXX",
"XXXXXXXXXXXXXXXXXXXXXXXXXXXXXXXXXXXXXXXXXXXXXXXXXXXXXXXXXXXXXXXX",
"XXXXXXXXXXXXXXXXXXXXXXXXXXXXXXXXXXXXXXXXXXXXXXXXXXXXXXXXXXXXXXXX",
"XXXXXXXXXXXXXXXXXXXXXXXXXXXXXXXXXXXXXXXXXXXXXXXXXXXXXXXXXXXXXXXX",
"XXXXXXXXXXXXXXXXXXXXXXXXXXXXXXXXXXXXXXXXXXXXXXXXXXXXXXXXXXXXXXXX",
"XXXXXXXXXXXXXXXXXXXXXXXXXXXXXXXXXXXXXXXXXXXXXXXXXXXXXXXXXXXXXXXX",
"XXXXXXXXXXXXXXXXXXXXXXXXXXXXXXXXXXXXXXXXXXXXXXXXXXXXXXXXXXXXXXXX",
"XXXXXXXXXXXXXX..............XXXXXXXX..............XXXXXXXXXXXXXX",
"XXXXXXXXXXXXXX..............XXXXXXXX..............XXXXXXXXXXXXXX",
"XXXXXXXXXXXXXX..............XXXXXXXX..............XXXXXXXXXXXXXX",
"XXXXXXXXXXXXXX..............XXXXXXXX..............XXXXXXXXXXXXXX",
"XXXXXXXXXXXXXX..............XXXXXXXX..............XXXXXXXXXXXXXX",
"XXXXXXXXXXXXXX..............XXXXXXXX..............XXXXXXXXXXXXXX",
"XXXXXXXXXXXXXX..............XXXXXXXX..............XXXXXXXXXXXXXX",
"XXXXXXXXXXXXXX..............XXXXXXXX..............XXXXXXXXXXXXXX",
"XXXXXXXXXXXXXXXXXXXXXXXXXXXXXXXXXXXXXXXXXXXXXXXXXXXXXXXXXXXXXXXX",
"XXXXXXXXXXXXXXXXXXXXXXXXXXXXXXXXXXXXXXXXXXXXXXXXXXXXXXXXXXXXXXXX",
"XXXXXXXXXXXXXXXXXXXXXXXXXXXXXXXXXXXXXXXXXXXXXXXXXXXXXXXXXXXXXXXX",
"XXXXXXXXXXXXXXXXXXXXXXXXXXXXXXXXXXXXXXXXXXXXXXXXXXXXXXXXXXXXXXXX",
"XXXXXXXXXXXXXXXXXXXXXXXXXXXXXXXXXXXXXXXXXXXXXXXXXXXXXXXXXXXXXXXX",
"XXXXXXXXXXXXXXXXXXXXXXXXXXXXXXXXXXXXXXXXXXXXXXXXXXXXXXXXXXXXXXXX",
"XXXXXXXXXXXXXXXXXXXXXXXXXXXXXXXXXXXXXXXXXXXXXXXXXXXXXXXXXXXXXXXX",
"XXXXXXXXXXXXXX....................................XXXXXXXXXXXXXX",
"XXXXXXXXXXXXXX....................................XXXXXXXXXXXXXX",
"XXXXXXXXXXXXXX....................................XXXXXXXXXXXXXX",
"XXXXXXXXXXXXXX....................................XXXXXXXXXXXXXX",
"XXXXXXXXXXXXXX....................................XXXXXXXXXXXXXX",
"XXXXXXXXXXXXXX....................................XXXXXXXXXXXXXX",
"XXXXXXXXXXXXXX....................................XXXXXXXXXXXXXX",
"       XXXXXXXXXXXXXX......................XXXXXXXXXXXXXX       ",
"       XXXXXXXXXXXXXX......................XXXXXXXXXXXXXX       ",
"       XXXXXXXXXXXXXX......................XXXXXXXXXXXXXX       ",
"       XXXXXXXXXXXXXX......................XXXXXXXXXXXXXX       ",
"       XXXXXXXXXXXXXX......................XXXXXXXXXXXXXX       ",
"       XXXXXXXXXXXXXX......................XXXXXXXXXXXXXX       ",
".......XXXXXXXXXXXXXX......................XXXXXXXXXXXXXX       ",
"........      XXXXXXXXXXXXXXXXXXXXXXXXXXXXXXXXXXXX              ",
"........      XXXXXXXXXXXXXXXXXXXXXXXXXXXXXXXXXXXX              ",
"........      XXXXXXXXXXXXXXXXXXXXXXXXXXXXXXXXXXXX              ",
"........      XXXXXXXXXXXXXXXXXXXXXXXXXXXXXXXXXXXX              ",
"........      XXXXXXXXXXXXXXXXXXXXXXXXXXXXXXXXXXXX              ",
"........      XXXXXXXXXXXXXXXXXXXXXXXXXXXXXXXXXXXX              ",
"........      XXXXXXXXXXXXXXXXXXXXXXXXXXXXXXXXXXXX              "
};
