/* XPM */
static const char *wall[] = {
/* columns rows colors chars-per-pixel */
"64 64 2 1 ",
"  c #929992",
". c #201208",
/* pixels */
"                                                ........        ",
"                                                ........        ",
"                                                ........        ",
"                                                ........        ",
"                                                ........        ",
"                                                ........        ",
"                                                ........        ",
"                                                ........        ",
"                                                ........        ",
"                                                ........        ",
"                                                ........        ",
"                                                ........        ",
"                                                ........        ",
"                                                ........        ",
"                                                ........        ",
"                                                ........        ",
"................................................................",
"................................................................",
"................................................................",
"................................................................",
"................................................................",
"................................................................",
"................................................................",
"................................................................",
"        ........                                                ",
"        ........                                                ",
"        ........                                                ",
"        ........                                                ",
"        ........                                                ",
"        ........                                                ",
"        ........                                                ",
"        ........                                                ",
"        ........                                                ",
"        ........                                                ",
"        ........                                                ",
"        ........                                                ",
"        ........                                                ",
"        ........                                                ",
"        ........                                                ",
"        ........                                                ",
"................................................................",
"................................................................",
"................................................................",
"................................................................",
"................................................................",
"................................................................",
"................................................................",
"................................................................",
"                                ........                        ",
"                                ........                        ",
"                                ........                        ",
"                                ........                        ",
"                                ........                        ",
"                                ........                        ",
"                                ........                        ",
"                                ........                        ",
"                                ........                        ",
"                                ........                        ",
"                                ........                        ",
"                                ........                        ",
"                                ........                        ",
"                                ........                        ",
"                                ........                        ",
"                                ........                        "
};
