/* XPM */
static const char *character_right_back[] = {
/* columns rows colors chars-per-pixel */
"64 64 6 1 ",
"  c #2E2823",
". c #3AC100",
"X c #201208",
"o c #00FF21",
"O c #FFD400",
"+ c white",
/* pixels */
"        ................................XXXXXXXX        XXXXXXXX",
"        ................................XXXXXXXX        XXXXXXXX",
"        ................................XXXXXXXX        XXXXXXXX",
"        ................................XXXXXXXX        XXXXXXXX",
"        ................................XXXXXXXX        XXXXXXXX",
"        ................................XXXXXXXX        XXXXXXXX",
"        ................................XXXXXXXX        XXXXXXXX",
"        ................................XXXXXXXX        XXXXXXXX",
"                ................................XXXXXXXXoooooooo",
"                ................................XXXXXXXXoooooooo",
"                ................................XXXXXXXXoooooooo",
"                ................................XXXXXXXXoooooooo",
"                ................................XXXXXXXXoooooooo",
"                ................................XXXXXXXXoooooooo",
"                ................................XXXXXXXXoooooooo",
"                ................................XXXXXXXXoooooooo",
"                ................................        OOOOOOOO",
"                ................................        OOOOOOOO",
"                ................................        OOOOOOOO",
"                ................................        OOOOOOOO",
"                ................................        OOOOOOOO",
"                ................................        OOOOOOOO",
"                ................................        OOOOOOOO",
"                ................................        OOOOOOOO",
"                ................................XXXXXXXX++++++++",
"                ................................XXXXXXXX++++++++",
"                ................................XXXXXXXX++++++++",
"                ................................XXXXXXXX++++++++",
"                ................................XXXXXXXX++++++++",
"                ................................XXXXXXXX++++++++",
"                ................................XXXXXXXX++++++++",
"                ................................XXXXXXXX++++++++",
"XXXXXXXX................................................OOOOOOOO",
"XXXXXXXX................................................OOOOOOOO",
"XXXXXXXX................................................OOOOOOOO",
"XXXXXXXX................................................OOOOOOOO",
"XXXXXXXX................................................OOOOOOOO",
"XXXXXXXX................................................OOOOOOOO",
"XXXXXXXX................................................OOOOOOOO",
"XXXXXXXX................................................OOOOOOOO",
"XXXXXXXX        ................................        OOOOOOOO",
"XXXXXXXX        ................................        OOOOOOOO",
"XXXXXXXX        ................................        OOOOOOOO",
"XXXXXXXX        ................................        OOOOOOOO",
"XXXXXXXX        ................................        OOOOOOOO",
"XXXXXXXX        ................................        OOOOOOOO",
"XXXXXXXX        ................................        OOOOOOOO",
"XXXXXXXX        ................................        OOOOOOOO",
"        ........................................        OOOOOOOO",
"        ........................................        OOOOOOOO",
"        ........................................        OOOOOOOO",
"        ........................................        OOOOOOOO",
"        ........................................        OOOOOOOO",
"        ........................................        OOOOOOOO",
"        ........................................        OOOOOOOO",
"        ........................................        OOOOOOOO",
"................................................        OOOOOOOO",
"................................................        OOOOOOOO",
"................................................        OOOOOOOO",
"................................................        OOOOOOOO",
"................................................        OOOOOOOO",
"................................................        OOOOOOOO",
"................................................        OOOOOOOO",
"................................................        OOOOOOOO"
};
