/* XPM */
static const char *exit[] = {
/* columns rows colors chars-per-pixel */
"64 64 2 1 ",
"  c #201208",
". c #CC8E4C",
/* pixels */
"        ................................................        ",
"        ................................................        ",
"        ................................................        ",
"        ................................................        ",
"        ................................................        ",
"        ................................................        ",
"        ................................................        ",
"        ................................................        ",
"................                                ................",
"................                                ................",
"................                                ................",
"................                                ................",
"................                                ................",
"................                                ................",
"................                                ................",
"................                                ................",
"........                                                ........",
"........                                                ........",
"........                                                ........",
"........                                                ........",
"........                                                ........",
"........                                                ........",
"........                                                ........",
"........                                                ........",
"........                                                ........",
"........                                                ........",
"........                                                ........",
"........                                                ........",
"........                                                ........",
"........                                                ........",
"........                                                ........",
"........                                                ........",
"........                                                ........",
"........                                                ........",
"........                                                ........",
"........                                                ........",
"........                                                ........",
"........                                                ........",
"........                                                ........",
"........                                                ........",
"........                                                ........",
"........                                                ........",
"........                                                ........",
"........                                                ........",
"........                                                ........",
"........                                                ........",
"........                                                ........",
"........                                                ........",
"........                                                ........",
"........                                                ........",
"........                                                ........",
"........                                                ........",
"........                                                ........",
"........                                                ........",
"........                                                ........",
"........                                                ........",
"........                                                ........",
"........                                                ........",
"........                                                ........",
"........                                                ........",
"........                                                ........",
"........                                                ........",
"........                                                ........",
"........                                                ........"
};
